<?xml version="1.0" encoding="UTF-8"?>
<!DOCTYPE svg PUBLIC "-//W3C//DTD SVG 1.1//EN" "http://www.w3.org/Graphics/SVG/1.1/DTD/svg11.dtd">
<svg xmlns="http://www.w3.org/2000/svg" version="1.1" width="500px" height="96px" style="shape-rendering:geometricPrecision; text-rendering:geometricPrecision; image-rendering:optimizeQuality; fill-rule:evenodd; clip-rule:evenodd" xmlns:xlink="http://www.w3.org/1999/xlink">
<g><path style="opacity:0.893" fill="#010101" d="M 376.5,18.5 C 387.511,16.4523 396.844,19.2856 404.5,27C 403.037,29.6312 401.037,31.7979 398.5,33.5C 388.632,25.5272 378.799,25.5272 369,33.5C 360.904,45.6831 362.404,56.5164 373.5,66C 382.587,70.0919 390.92,68.9252 398.5,62.5C 401.42,64.2219 403.253,66.5553 404,69.5C 395.941,77.0733 386.441,79.5733 375.5,77C 360.98,72.8107 353.647,63.1441 353.5,48C 354.653,33.0216 362.319,23.1882 376.5,18.5 Z"/></g>
<g><path style="opacity:0.908" fill="#010101" d="M 35.5,19.5 C 38.8333,19.5 42.1667,19.5 45.5,19.5C 45.3335,31.5046 45.5001,43.5046 46,55.5C 57.8333,43.6667 69.6667,31.8333 81.5,20C 85.8333,19.3333 90.1667,19.3333 94.5,20C 88.6518,25.6812 82.9851,31.5146 77.5,37.5C 83.1667,50.1667 88.8333,62.8333 94.5,75.5C 90.6197,76.7948 86.7864,76.7948 83,75.5C 78.7574,65.351 74.2574,55.351 69.5,45.5C 61.1504,53.0161 53.3171,61.0161 46,69.5C 45.5034,71.8098 45.3367,74.1432 45.5,76.5C 42.1667,76.5 38.8333,76.5 35.5,76.5C 35.5,57.5 35.5,38.5 35.5,19.5 Z"/></g>
<g><path style="opacity:0.839" fill="#000000" d="M 100.5,19.5 C 104.167,19.5 107.833,19.5 111.5,19.5C 111.5,38.5 111.5,57.5 111.5,76.5C 107.833,76.5 104.167,76.5 100.5,76.5C 100.5,57.5 100.5,38.5 100.5,19.5 Z"/></g>
<g><path style="opacity:0.917" fill="#000000" d="M 121.5,19.5 C 124.518,19.3354 127.518,19.502 130.5,20C 143.667,33.8333 156.833,47.6667 170,61.5C 170.5,47.504 170.667,33.504 170.5,19.5C 173.833,19.5 177.167,19.5 180.5,19.5C 180.5,38.5 180.5,57.5 180.5,76.5C 177.15,76.665 173.817,76.4983 170.5,76C 157.667,62.5 144.833,49 132,35.5C 131.5,49.1626 131.333,62.8293 131.5,76.5C 128.167,76.5 124.833,76.5 121.5,76.5C 121.5,57.5 121.5,38.5 121.5,19.5 Z"/></g>
<g><path style="opacity:0.898" fill="#000000" d="M 199.5,19.5 C 211.5,19.5 223.5,19.5 235.5,19.5C 235.5,22.5 235.5,25.5 235.5,28.5C 224.828,28.3335 214.161,28.5002 203.5,29C 197.41,32.8596 197.077,37.1929 202.5,42C 211.44,43.2154 220.44,43.882 229.5,44C 238.85,47.6635 242.35,54.4968 240,64.5C 238.257,69.9104 234.757,73.7437 229.5,76C 216.171,76.4999 202.837,76.6666 189.5,76.5C 189.223,73.5525 189.556,70.7191 190.5,68C 202.5,67.6667 214.5,67.3333 226.5,67C 230.212,64.487 231.378,60.987 230,56.5C 229.5,54.6667 228.333,53.5 226.5,53C 218.833,52.6667 211.167,52.3333 203.5,52C 189.245,47.7756 185.412,38.9423 192,25.5C 194.114,22.8792 196.614,20.8792 199.5,19.5 Z"/></g>
<g><path style="opacity:0.914" fill="#000000" d="M 248.5,19.5 C 261.837,19.3334 275.171,19.5001 288.5,20C 297.38,23.9242 300.88,30.7576 299,40.5C 296.844,47.6516 292.01,51.4849 284.5,52C 275.84,52.4998 267.173,52.6664 258.5,52.5C 258.5,60.5 258.5,68.5 258.5,76.5C 255.167,76.5 251.833,76.5 248.5,76.5C 248.5,57.5 248.5,38.5 248.5,19.5 Z M 258.5,28.5 C 267.506,28.3336 276.506,28.5002 285.5,29C 289.707,32.0696 290.54,35.903 288,40.5C 286.352,41.717 284.519,42.5503 282.5,43C 274.507,43.4997 266.507,43.6664 258.5,43.5C 258.5,38.5 258.5,33.5 258.5,28.5 Z"/></g>
<g><path style="opacity:0.907" fill="#010101" d="M 319.5,19.5 C 322.777,19.2161 325.943,19.5495 329,20.5C 337.525,38.9181 345.359,57.5848 352.5,76.5C 349.102,76.8204 345.768,76.487 342.5,75.5C 341.786,73.1889 340.786,71.0223 339.5,69C 329.167,68.3333 318.833,68.3333 308.5,69C 306.817,75.6231 302.483,78.1231 295.5,76.5C 303.221,57.3911 311.221,38.3911 319.5,19.5 Z M 323.5,31.5 C 327.724,40.2921 331.724,49.2921 335.5,58.5C 327.855,59.6648 320.188,59.8315 312.5,59C 316.661,50.0136 320.328,40.8469 323.5,31.5 Z"/></g>
<g><path style="opacity:0.914" fill="#000000" d="M 412.5,19.5 C 429.5,19.5 446.5,19.5 463.5,19.5C 463.5,22.5 463.5,25.5 463.5,28.5C 449.833,28.5 436.167,28.5 422.5,28.5C 422.5,33.5 422.5,38.5 422.5,43.5C 436.167,43.5 449.833,43.5 463.5,43.5C 463.777,46.4475 463.444,49.2809 462.5,52C 449.171,52.4999 435.837,52.6666 422.5,52.5C 422.5,57.5 422.5,62.5 422.5,67.5C 436.167,67.5 449.833,67.5 463.5,67.5C 463.5,70.5 463.5,73.5 463.5,76.5C 446.5,76.5 429.5,76.5 412.5,76.5C 412.5,57.5 412.5,38.5 412.5,19.5 Z"/></g>
</svg>
